<?xml version="1.0" encoding="utf-8"?>
<!-- Generator: Adobe Illustrator 18.0.0, SVG Export Plug-In . SVG Version: 6.00 Build 0)  -->
<!DOCTYPE svg PUBLIC "-//W3C//DTD SVG 1.1//EN" "http://www.w3.org/Graphics/SVG/1.1/DTD/svg11.dtd">
<svg version="1.1" id="Layer_1" xmlns="http://www.w3.org/2000/svg" xmlns:xlink="http://www.w3.org/1999/xlink" x="0px" y="0px"
	 viewBox="0 0 110 90" enable-background="new 0 0 110 90" xml:space="preserve">
<g>
	<g>
		<g>
			<g>
				<path fill="#FFFFFF" d="M8.3,48.3c0.8,0,0.9,0.6,0.9,0.8c0,0.8-0.9,0.7-1.2,0.7c-2.9-0.1-5.8-0.8-7.2-1.3
					C0.2,48.3,0,48.1,0,47.7c0-0.6,0.5-0.7,1.1-0.9C3,46.1,4.3,45.3,4.7,45c-0.4-0.3-1.6-1.2-3.5-2.1c-0.6-0.3-1-0.4-1-1
					c0-0.4,0.3-0.6,0.9-0.8c1.4-0.4,4.4-0.7,7.3-0.6c0.2,0,1.1,0.1,1.1,0.8c0,0.2-0.2,0.7-1,0.7l-0.6,0c-1,0-3.1-0.1-5.1,0.2
					c1.2,0.5,3.6,1.9,3.5,2.8c0,0.9-2.5,2.1-3.8,2.4c1.9,0.5,4.1,0.7,5,0.7L8.3,48.3z"/>
				<path fill="#FFFFFF" d="M4.3,32.8c0.6-1.5,2.3-1.9,4.2-1.1c2,0.9,2.5,2.3,1.9,3.8c-0.7,1.6-2.3,2-4.1,1.2
					C4.5,35.8,3.6,34.4,4.3,32.8z M3,32.2c-1.2,2.7,0.5,5,2.6,5.9c1.8,0.8,4.6,0.9,6-2.2c1.2-2.9-0.5-5-2.5-5.8
					C6.5,29,4.1,29.9,3,32.2z"/>
				<path fill="#FFFFFF" d="M18.3,24.8c0.3,0.3,0.3,0.8,0.1,1.1c-0.2,0.3-0.7,0.4-1.1,0.1l-5.4-4.6l-0.8,0.9
					c-0.4,0.5-0.5,1.1-0.1,2.4c0.8,2.1,2.4,3.9,3.1,4.6c0.5,0.5,0.7,0.8,0.3,1.3c-0.2,0.3-0.7,0.4-1.1,0.1c-1.2-1-4.2-5.3-4.1-7.5
					c0.1-0.8,0.4-1.2,0.8-1.7l1.3-1.5c0.5-0.5,0.9-0.3,1.2,0L18.3,24.8z"/>
				<path fill="#FFFFFF" d="M18.9,15.3c1.3-0.9,3-0.5,4.1,1.2c1.3,1.8,1,3.3-0.3,4.2c-1.4,1-3,0.5-4.1-1.1
					C17.5,18,17.5,16.3,18.9,15.3z M18.1,14.2c-2.4,1.7-2.2,4.5-0.8,6.4c1.1,1.6,3.5,3.1,6.2,1.2c2.5-1.8,2.1-4.5,0.9-6.2
					C22.8,13.2,20.2,12.7,18.1,14.2z"/>
				<path fill="#FFFFFF" d="M34.2,15.1c0.2,0.5-0.1,0.9-0.4,1c-0.4,0.2-0.8,0-1-0.4L31.6,13c-0.6,0.6-1.2,1-1.7,1.2
					c-1.3,0.6-3.3,0.9-4.5-1.7c-0.8-1.8-0.7-2.3-0.1-2.6c0.7-0.3,0.9,0.2,1,0.4c0.3,0.6,0.3,1.1,0.6,1.6c0.8,1.7,2.1,1.2,2.6,1
					c0.5-0.2,1.1-0.6,1.6-1.1l-1.3-3c-0.2-0.4,0-0.8,0.4-1c0.4-0.2,0.8-0.1,1,0.4L34.2,15.1z"/>
				<path fill="#FFFFFF" d="M40.8,7.5l-0.5-2c-0.1-0.5,0.2-0.8,0.6-0.9c0.4-0.1,0.8,0.1,0.9,0.5l1.9,7.4c0.1,0.4-0.2,0.8-0.6,0.9
					c-0.3,0.1-0.8,0-0.9-0.5l-1.1-4.1l-4.4,1.1l1.1,4.1c0.1,0.4-0.2,0.8-0.6,0.9c-0.4,0.1-0.8-0.1-0.9-0.5l-1.9-7.4
					C34.3,6.5,34.6,6.1,35,6c0.3-0.1,0.8,0,0.9,0.5l0.5,2.1L40.8,7.5z"/>
				<path fill="#FFFFFF" d="M46.9,7.2c1-1.6,3.3-3.9,5-4c0.6-0.1,0.8,0.3,0.8,0.6l0.7,7.8c0,0.4-0.3,0.8-0.7,0.8
					c-0.4,0-0.8-0.2-0.8-0.7l-0.6-6.9c-1.5,0.9-4.3,3.2-4.1,5.8l0.1,1.5c0,0.5-0.3,0.8-0.7,0.8c-0.4,0-0.8-0.2-0.8-0.7l-0.7-7.7
					c0-0.4,0.3-0.8,0.7-0.8c0.3,0,0.8,0.1,0.8,0.7L46.9,7.2z"/>
				<path fill="#FFFFFF" d="M57.5,6.7c1.3-1.5,3.8-3.3,5.6-3.2c0.6,0,0.7,0.4,0.7,0.7L63.2,12c0,0.4-0.4,0.7-0.8,0.7
					c-0.3,0-0.8-0.2-0.7-0.8L62.1,5c-1.7,0.7-4.7,2.5-4.9,5.1l-0.1,1.5c0,0.4-0.4,0.7-0.8,0.7c-0.3,0-0.7-0.2-0.7-0.8l0.5-7.7
					c0-0.4,0.4-0.7,0.8-0.7c0.4,0,0.8,0.4,0.7,0.8L57.5,6.7z M57.6,0.7c0-0.3,0.3-0.7,0.7-0.7c0.3,0,0.4,0.2,0.6,0.4
					c0.2,0.3,0.6,0.7,1.2,0.7c0.6,0,1-0.3,1.3-0.6c0.2-0.2,0.3-0.4,0.6-0.3c0.4,0,0.6,0.4,0.6,0.7c0,0.7-1.1,1.6-2.6,1.5
					C58.5,2.4,57.6,1.4,57.6,0.7z"/>
				<path fill="#FFFFFF" d="M75.3,6.6L75.3,6.6c-1.9,1.3-4.9,5.3-5.4,6.6c-0.1,0.2-0.1,0.4,0,0.5c0.1,0.2,0.3,0.3,0.5,0.4
					c0.5,0.2,0.8-0.1,1-0.4l0.4-0.8c0.4-0.8,0.8-1.4,1.5-2.2l0-0.1l0.1,0c1.9,0.6,3.1,2.3,2.8,4.1l-0.1,0.5
					c-0.1,0.6,0.3,0.8,0.5,0.9c0.2,0.1,0.4,0.1,0.7,0c0.3-0.2,0.4-0.5,0.5-1.1c0.3-2.3-0.2-6.4-0.7-7.8c-0.1-0.4-0.3-0.7-0.8-0.8
					C75.8,6.2,75.5,6.4,75.3,6.6z M76.3,11.4c-0.3-0.5-1-1.2-2.1-1.6l-0.1,0l0.1-0.1c0.7-0.9,1.3-1.4,1.6-1.6l0.1-0.1l0,0.2
					c0.3,1,0.5,2.2,0.5,3.3l0,0.4L76.3,11.4z"/>
				<path fill="#FFFFFF" d="M85.4,19.9c-0.2,0.4-0.7,0.5-1,0.3c-0.3-0.2-0.6-0.6-0.3-1l3.4-6.2l-1.1-0.6C85.8,12,85.1,12,84,12.7
					c-1.8,1.3-3.3,3.2-3.8,3.9c-0.4,0.6-0.6,0.9-1.2,0.6c-0.3-0.2-0.6-0.6-0.3-1c0.7-1.4,4.3-5.2,6.5-5.5c0.8-0.1,1.3,0.1,1.8,0.4
					l1.8,1c0.6,0.3,0.5,0.8,0.3,1.2L85.4,19.9z"/>
				<path fill="#FFFFFF" d="M88.7,21.6l2.3-2.7c1.3,1.2,2.4,3.3,1.6,4.3c-0.8,0.9-1.5,0.4-1.9,0.1L88.7,21.6z M93.3,16.2
					c0.3-0.3,0.3-0.8-0.1-1.1c-0.4-0.3-0.8-0.3-1.1,0.1L87.2,21c-0.4,0.4-0.3,0.9,0.1,1.2l2.5,2.1c1.4,1.2,3,1.2,4,0
					c1.7-2-0.4-4.9-1.9-6.4L93.3,16.2z"/>
				<path fill="#FFFFFF" d="M100,28.2c-0.6-1.1-1.4-3.5-0.4-4.3c0.3-0.3,0.7-0.1,0.9,0.2l1.7,2.3L100,28.2z M103.7,27.4
					c0.3-0.3,0.5-0.7,0.1-1.1l-2.1-2.8c-0.3-0.4-0.7-1-1.2-1.2c-0.4-0.2-1-0.3-1.6,0.2c-0.9,0.7-1.1,1.9-1.1,2.8
					c-1.7-0.2-3.6,0.5-4.4,1.1c-0.2,0.2-0.6,0.5-0.2,1c0.4,0.5,0.8,0.4,1.1,0.2c1-0.5,2-1.1,3.8-0.9c0.2,0.7,0.5,1.5,0.9,2.2
					l-2.3,1.8c-0.4,0.3-0.4,0.7-0.1,1.1c0.2,0.3,0.7,0.5,1.1,0.2L103.7,27.4z"/>
				<path fill="#FFFFFF" d="M105.8,37.3l2-0.7c0.5-0.2,0.8,0.2,1,0.5c0.1,0.4,0,0.8-0.4,1l-7.2,2.7c-0.4,0.2-0.8-0.1-1-0.5
					c-0.1-0.3-0.1-0.8,0.4-1l4-1.5l-1.5-4.2l-4,1.5c-0.4,0.2-0.8-0.1-1-0.5c-0.1-0.4,0-0.8,0.4-1l7.2-2.7c0.4-0.2,0.8,0.1,1,0.5
					c0.1,0.3,0.1,0.8-0.4,1l-2,0.7L105.8,37.3z"/>
				<path fill="#FFFFFF" d="M110,49c0,0.4-0.2,0.7-0.7,0.7c-0.1,0-0.7,0-0.7-0.7l0-2.4c0-1-0.2-3-2.7-2.9c-1.7,0-3.9,1.4-3.8,4.5
					c0,0.6,0.1,0.8,0.1,1.3c0,0.3,0,0.8-0.6,0.8c-0.9,0-0.8-1.2-0.8-2.1c-0.1-4.1,2.5-6,5.2-6.1c2.1,0,4,1.1,4.1,4L110,49z"/>
			</g>
			<g>
				<path fill="#FFFFFF" d="M11.8,62l-5.9,3.8l-0.6-1l6.8-4.3l1.5,2.3l-0.9,0.6L11.8,62z"/>
				<path fill="#FFFFFF" d="M14.8,69.8c-0.2,0.2-0.5,0-0.8-0.3l2.2-2.1c0.3,0.3,0.5,0.5,0,1.1L14.8,69.8z M15.8,70.5l1.3-1.2
					c0.8-0.8,0.7-1.5-0.2-2.4L16,65.9l-5.8,5.6l0.8,0.9l2.2-2.2C14.2,71.1,14.9,71.4,15.8,70.5z"/>
				<path fill="#FFFFFF" d="M18.5,78.7l-0.9-0.6l0.9-0.9l2.8-6.3l1,0.7l-2,3.9l0,0l3-3.1l0.9,0.6L18.5,78.7z"/>
				<path fill="#FFFFFF" d="M26,83.2l3.1-6.3l-0.6-0.3l-3.1,6.3l-1.1-0.5l3.6-7.2l2.7,1.4l-3.6,7.2L26,83.2z"/>
				<path fill="#FFFFFF" d="M35.1,83.3l-0.6-0.2l1.3-3.1l0.1,0L35.1,83.3z M35.5,86.9l1.7-8l-1.7-0.6l-3.4,7.4l1,0.3l0.9-2l0.8,0.3
					l-0.5,2.2L35.5,86.9z"/>
				<path fill="#FFFFFF" d="M50,89.5l-0.5-4.2l0,0l-0.3,4.1l-1.2-0.1l0.6-8l1.2,0.1L49.4,85l0,0l1.2-3.6l1.2,0.1l-1.2,3.6l0.6,4.4
					L50,89.5z"/>
				<path fill="#FFFFFF" d="M58.4,88.3c0,0.4-0.1,0.5-0.3,0.5c-0.2,0-0.4-0.1-0.4-0.5l-0.2-5.5c0-0.4,0.1-0.5,0.4-0.5
					c0.2,0,0.4,0.1,0.4,0.5L58.4,88.3z M59.6,88.3l-0.2-5.7c0-1.1-0.9-1.3-1.6-1.3c-0.7,0-1.5,0.4-1.5,1.4l0.2,5.7
					c0,1.1,0.9,1.3,1.6,1.3C58.9,89.7,59.7,89.4,59.6,88.3z"/>
				<path fill="#FFFFFF" d="M68.9,88.3l-0.7-3.7c-0.2-0.9-0.4-2.5-0.5-2.8l0,0c0,0.6,0.3,2.7,0.3,3.1l0.2,3.5l-1.1,0.2L66,84.9
					c-0.2-0.8-0.6-1.9-0.8-2.6l0,0c0,0.2,0.3,1.2,0.3,1.5l0.9,4.9l-1,0.2L63.9,81l1.7-0.3l1,3.2c0.1,0.4,0.5,1.6,0.6,2.4l0.1,0
					c-0.1-0.8-0.3-1.8-0.3-2.5l-0.3-3.4l1.7-0.3l1.5,7.9L68.9,88.3z"/>
				<path fill="#FFFFFF" d="M77.3,86L75,79.3l-0.6,0.2l2.3,6.6l-1.1,0.4L72.9,79l2.9-1l2.6,7.6L77.3,86z"/>
				<path fill="#FFFFFF" d="M83.8,79.6l-0.6,0.3L82,76.8l0.1,0L83.8,79.6z M86.7,81.8l-4.5-6.8l-1.6,0.8l2.9,7.6l1-0.5l-0.8-2.1
					l0.8-0.4l1.2,1.8L86.7,81.8z"/>
				<path fill="#FFFFFF" d="M92.9,77.8l-2.3-3.2L90,75l2.3,3.2l-1,0.7l-4.8-6.5l1-0.7l1.8,2.5l0.5-0.4l-1.8-2.5l1-0.7l4.8,6.5
					L92.9,77.8z"/>
				<path fill="#FFFFFF" d="M98.2,73.2l-5.8-5.6l0.8-0.9l5.8,5.6L98.2,73.2z"/>
				<path fill="#FFFFFF" d="M96.7,61.9c-0.3,0.5-0.8,0.6-1.4,0.3l0.2-0.3c0.3,0.1,0.6-0.1,0.7-0.3c0.1-0.2,0.2-0.5,0-0.7l0.2-0.3
					C97,60.8,97,61.4,96.7,61.9z M104,66.1l-3.6-2.4l0,0l3.1,3.1l-0.6,0.9l-6.7-4.5l0.6-0.9l3.6,2.4l0,0l-3.1-3.1l0.6-1l6.7,4.5
					L104,66.1z"/>
			</g>
		</g>
		<g>
			<circle fill="#FFFFFF" cx="5.9" cy="56" r="2.8"/>
			<circle fill="#FFFFFF" cx="104.3" cy="56" r="2.8"/>
		</g>
	</g>
	<g>
		<path fill="#FFFFFF" d="M13.5,46.6c0,16.9,18.7,30.6,41.6,30.6c23,0,41.6-13.7,41.6-30.6C96.7,29.7,78.1,16,55.1,16
			C32.2,16,13.5,29.7,13.5,46.6z M14.2,46.6c0-16.5,18.4-29.9,40.9-29.9c22.6,0,41,13.4,41,29.9c0,16.5-18.4,29.9-41,29.9
			C32.5,76.5,14.2,63.1,14.2,46.6z"/>
		<path fill="#FFFFFF" d="M61.8,30.7c0.5-0.4,0.7-1,0.8-1.7c0-0.7-0.2-1.3-0.5-1.8c-0.4-0.5-0.9-0.8-1.5-0.9c-0.6-0.1-1.3,0.1-2,0.5
			c-0.4,0.2-0.8,0.5-1.1,0.8l0,0c-0.1,0.1-0.3,0.2-0.4,0.3c-0.3,0.2-0.4,0.3-0.6,0.5c-0.6,0.4-1.1-0.3-0.6-0.8
			c0.2-0.1,0.4-0.3,0.7-0.5c0.2-0.1,0.3-0.2,0.5-0.3l0,0c0.3-0.2,0.7-0.4,1.1-0.7c0.9-0.7,1.4-1.5,1.4-2.3c0-0.4-0.1-0.8-0.3-1.1
			c-0.3-0.5-0.9-1-1.5-1.2c-0.6-0.2-1.3-0.2-1.8,0.1c-0.4,0.2-0.6,0.7-0.6,0.8l-0.1,0.2L55,23l-0.2-0.6c0,0-0.2-0.6-0.6-0.8
			c-0.5-0.3-1.2-0.3-1.8-0.1c-0.6,0.2-1.1,0.7-1.5,1.2c-0.2,0.4-0.3,0.8-0.3,1.1c0,0.8,0.5,1.6,1.4,2.3c0.4,0.3,0.8,0.5,1.1,0.7
			c0.2,0.1,0.3,0.2,0.5,0.3c0.3,0.2,0.5,0.3,0.7,0.4c0.5,0.4-0.1,1.2-0.6,0.8c-0.2-0.1-0.4-0.3-0.6-0.5c-0.1-0.1-0.3-0.2-0.4-0.3
			l0,0c-0.3-0.2-0.6-0.5-1.1-0.8c-0.7-0.4-1.4-0.6-2-0.5c-0.6,0.1-1.1,0.4-1.5,0.9c-0.4,0.5-0.6,1.2-0.5,1.8c0,0.7,0.3,1.3,0.7,1.7
			c0.3,0.3,1,0.3,1,0.3l0.6,0l-0.4,0.4c0,0-0.5,0.5-0.5,0.9c0,0.6,0.2,1.2,0.6,1.7c0.4,0.5,1,0.8,1.6,0.9c0.6,0.1,1.2-0.1,1.7-0.4
			c0.5-0.4,0.8-1,1.1-1.8c0.1-0.5,0.2-0.9,0.2-1.3v0c0-0.2,0-0.4,0.1-0.5c0.1-0.4,0.1-0.7,0.2-1c0.1-0.3,0.4-0.4,0.5-0.1v2.7
			c0,1.1,0.1,2.6,1.3,3.9l0.4-0.3c-1-1.2-1.2-2.6-1.2-3.6v-2.8c0-0.2,0.4-0.2,0.5,0.1c0.1,0.3,0.1,0.6,0.2,1c0,0.2,0,0.4,0.1,0.5
			c0,0.4,0.1,0.8,0.2,1.3c0.2,0.8,0.6,1.4,1.1,1.8c0.5,0.4,1.1,0.5,1.7,0.4c0.6-0.1,1.2-0.4,1.6-0.9c0.4-0.5,0.7-1.1,0.7-1.7
			c0-0.5-0.5-0.9-0.5-0.9L60.3,31l0.6,0C60.9,31,61.5,31,61.8,30.7z"/>
		<g>
			<path fill="#FFFFFF" d="M21.9,45.7c-2.3,3-3.2,6-3.7,10.7c-0.5-5.2,0.7-8.4,1.7-10.8c-0.2,0-0.2,0-0.2,0s-2.6,3.5-2.7,8.5
				c0.5,1.3,1,3.3,3.4,6.4c-1.4-3.9-1.2-8.9,1.6-14.7C21.9,45.7,21.9,45.7,21.9,45.7z"/>
			<path fill="#FFFFFF" d="M88.2,45.7c2.3,3,3.2,6,3.7,10.7c0.5-5.2-0.7-8.4-1.7-10.8c0.2,0,0.2,0,0.2,0s2.6,3.5,2.7,8.5
				c-0.5,1.3-1,3.3-3.4,6.4c1.4-3.9,1.2-8.9-1.6-14.7C88.1,45.7,88.1,45.7,88.2,45.7z"/>
		</g>
		<g>
			<path fill="#FFFFFF" d="M85.4,28.3l-2.1-1.7c-11.4-8.2-26.8-10.3-40.8-7.1C31.7,22,18.8,29.5,16,42.2c-0.8,3.8-0.5,7.4,0.5,10.7
				c0.1-1.4,0.2-3.1,0.9-5.3c2.9-9,14.3-9.4,14.5-9.5c0.1,0,0.2,0,0.3,0c1.8-0.2,3.4-0.1,4.5,0.1c0.1-0.1,0.2-0.1,0.3-0.2
				c0-0.2-0.2-0.2-0.3-0.3c-2.2-0.5-4.7-0.3-6.9,0c-2.5,0.4-5.2,1.1-7.4,2.4l0,0c-2.5,1.6-3.9,3.3-4.7,4.4
				c0.9-9.5,9.6-17.1,17.3-20.2c15.2-6.8,36-5.3,49,5.6c4.4,3.9,7.6,8.7,8.3,14.5c-0.7-1.1-2-2.5-4.1-4c-0.1,0-0.1-0.1-0.2-0.1
				c-0.1,0-0.2-0.1-0.2-0.2h0c-0.1-0.1-0.3-0.2-0.5-0.3c-3.8-1.9-8.1-2.5-12.6-2.4c-0.5,0.1-1.1,0.1-1.5,0.4c-0.1,0.1-0.1,0.1,0,0.2
				c0.1,0,0.2,0.1,0.3,0.1c1.1-0.2,2.7-0.3,4.5-0.1c0.1,0,0.2,0,0.3,0c0.2,0,11.6,0.5,14.5,9.5c0.7,2.2,0.8,3.9,0.9,5.3
				c0.1-0.3,0.2-0.7,0.3-1C96.3,42.7,92.3,34.1,85.4,28.3z"/>
			<path fill="#FFFFFF" d="M82.1,41.2c-1.2-0.7-2.3-1-3.2-1.1c0.4,0.2,0.8,0.4,1.2,0.7c-3.4-0.2-6.6-1.4-9.4-3.6
				c-0.7-0.7-1.5-1.4-1.4-2.4c0.6-0.6,1.4-0.7,2.1-0.8c3.5,0.1,6.6,1.3,9.4,3.3c1,0.2,1.9,0.4,2.9,0.6c-1.4-2.1-3.6-3.3-5.7-4.2
				c-2.5-1-5.4-1.9-8.3-1.2c-0.9,0.2-2,1-2.1,2.1c-0.1,1,0.3,1.9,0.9,2.6c0.1,0.7,0.1,1.4,0,2.1c-2.6-3.2-6.8-4.2-10.5-2.8
				c-2.8,1-5.4,4.1-5.9,7.2c-0.3,1.9,0,3.9,0.7,5.4c1.2-1.2,1.7-2.8,1.6-4.5c0.2-2.4,2-4.8,4.1-5.6c2.6-1.2,5.9-0.5,7.9,1.7
				c0.5,0.6,0.9,1.2,1.2,1.8c-0.7,1.8-2.1,3.5-3.7,4.6c-2,1.1-3.9,2.3-5.5,4.3L57.6,51c-0.5,0.7-1,1.4-1.6,2l1.1,0.7
				c-1.2,2.6-1.8,5.7-1.5,8.9c0.2,3,0.9,5.9,1.7,8.6c8.7-0.4,16.8-2.7,23.8-7.6c0.3-1,0.4-2.2,0.4-3.4c-0.1-2.6-0.8-4.8-1.7-7
				c-1.1-3.9-0.3-8.1,2.5-10.8c2.4,2.2,4.1,4.8,5.2,7.7c0.8,2.6,0.9,5.9,0.5,8.7c0,0.1,0,0.2,0,0.2c-0.1,0.1-0.2,0.3-0.4,0.5
				c-0.2,0.3-0.5,0.6-0.8,1c-7.3,7.6-16.3,10.8-26.1,12c-11.9,1.1-23.1-1.2-32.4-7.7c-1.3-1-2.6-2-3.7-3.2c-0.7-0.8-1.3-1.5-1.7-2
				c-0.2-0.2-0.4-0.5-0.5-0.7c-0.3-2.3-0.4-4.8,0-7.1c0.5-2.7,1.9-5,3.5-7.2c0.6-0.8,1.4-1.5,2.1-2.2c2.7,2.6,3.5,6.7,2.6,10.5
				c-0.9,2.5-1.8,5-1.8,7.9c0,1,0.2,1.9,0.3,2.8c7,5,15,7.2,23.8,7.7c1.7-5.2,2.9-12.4,0.2-17.5c3.2-1.7,5.3-5.3,4.9-9.1
				c-0.1-1.1-0.4-2.1-0.8-3c-1.2,1.2-1.7,2.7-1.6,4.4c-0.1,2.4-1.9,4.7-4,5.6c-1.6-2-3.5-3.2-5.5-4.3c-1.5-1.1-2.9-2.8-3.7-4.5
				c1.2-2.8,4-4.4,6.9-4.1c1.2,0.1,2.3,0.5,3.2,1.1c0.5-0.7,0.9-1.3,1.6-1.9c-2.7-2.2-7.1-2.4-10-0.6c-0.9,0.6-1.8,1.2-2.5,2.2
				c-0.1-0.8-0.1-1.5,0.1-2.3c0.6-0.9,1.1-2.2,0.5-3.2c-1.3-2-3.9-1.7-6-1.4c-3.2,0.6-6.1,1.8-8.7,4.1c-0.4,0.4-0.9,0.9-1.2,1.4
				c0.9-0.2,1.9-0.5,2.9-0.6c2.8-2,6-3.3,9.7-3.2c0.7,0.1,1.5,0.1,1.9,0.8c0,1.1-1.1,2-1.9,2.7c-2.6,1.9-5.5,3-8.8,3.3
				c0.4-0.3,0.8-0.5,1.3-0.7c-0.9,0.2-2.1,0.5-3.3,1.1c-1.4,0.9-2.9,2.2-4.2,3.9c-3.3,4.5-4.4,12.5-2.2,16.8c1.3,1.4,2.7,2.8,4.2,4
				c11.4,8.7,26.9,11.1,41.4,7.9c7.4-1.7,15.6-5.5,21.1-11.8c2.2-4.3,1.2-12.3-2.2-16.8C84.9,43.4,83.5,42.1,82.1,41.2z M73,45
				c1,0.4,1.9,0.7,2.5,1.1c-0.8,0.1-1.8,0.1-2.8-0.3c-1-0.4-1.8-1-2.3-1.6C71.1,44.3,72,44.6,73,45z M70.9,42.5
				c0.7,0.2,1.6,0.6,2.7,1c1.1,0.4,2.1,0.8,2.7,1.1c-0.8,0.1-1.9,0-3-0.4C72.3,43.8,71.4,43.1,70.9,42.5z M72.4,46.6
				c1,0.4,1.9,0.8,2.6,1.1c-0.8,0.1-1.8,0.1-2.9-0.4c-1.1-0.4-1.9-1.1-2.4-1.7C70.4,45.8,71.3,46.2,72.4,46.6z M71.8,48.1
				c1.1,0.4,2.2,0.8,3,1.2c-0.8,0.1-2.1,0.1-3.3-0.4c-1.3-0.5-2.2-1.3-2.7-1.9C69.6,47.3,70.6,47.7,71.8,48.1z M71.2,49.7
				c1.4,0.6,2.8,1,3.9,1.3c-1,0.2-2.6,0.1-4.2-0.5c-1.6-0.6-2.8-1.6-3.4-2.5C68.4,48.5,69.7,49.1,71.2,49.7z M70.5,51.3
				c1.9,0.7,3.8,1.2,5.5,1.2c-1.3,0.4-3.5,0.4-5.8-0.5c-2.4-0.9-3.9-2.5-4.6-3.6C66.9,49.6,68.7,50.5,70.5,51.3z M69.9,52.8
				c2.4,0.9,4.8,1.3,6.5,1.2c-1.8,0.6-4.4,0.7-6.9-0.3c-2.4-0.9-4.3-2.7-5.2-4.4C65.5,50.5,67.5,51.9,69.9,52.8z M69.3,54.5
				c2.9,1.1,6,1.5,8,0.9c-2.2,1.2-5.5,1.4-8.5,0.2c-2.9-1.1-5.3-3.5-6.1-5.9C63.9,51.6,66.3,53.4,69.3,54.5z M64.4,66.7
				c-2.1-0.8-3.8-2.2-4.8-3.5c1.2,0.8,3,1.9,5.1,2.7c2.1,0.8,4.1,1.2,5.6,1.4C68.7,67.6,66.5,67.5,64.4,66.7z M65.2,65.1
				c-2.8-1.1-5.1-3.2-6.2-5.3c1.3,1.6,3.7,3.3,6.5,4.4c2.8,1.1,5.7,1.5,7.8,1.2C71.1,66.2,68,66.2,65.2,65.1z M73.8,63.8
				c-0.8,0.3-1.7,0.5-2.6,0.5c-1.7,0.1-3.6-0.2-5.4-0.9c-1.8-0.7-3.3-1.7-4.5-3c-0.6-0.7-1.2-1.4-1.6-2.1c-0.5-0.8-0.8-1.8-0.8-3
				c0.1,1,0.5,1.8,1,2.5c0.5,0.6,1.1,1.2,1.7,1.8c1.3,1,2.9,2,4.7,2.7c1.8,0.7,3.6,1.1,5.2,1.2c0.9,0,1.7,0,2.5-0.1
				c0.8-0.2,1.7-0.5,2.5-1.1C75.6,63,74.7,63.5,73.8,63.8z M71.7,62.3c-1.7,0.1-3.5-0.2-5.2-0.9c-1.7-0.7-3.2-1.7-4.4-2.9
				c-1.2-1.3-2.2-2.9-2.4-4.7c0.3,1.5,1.5,2.8,2.8,3.9c1.2,1,2.8,1.9,4.5,2.5c1.7,0.7,3.4,1.1,5,1.2c1.7,0.1,3.4-0.1,4.7-1
				C75.3,61.7,73.4,62.2,71.7,62.3z M72.4,60.4c-1.6,0.1-3.3-0.2-5-0.8c-1.7-0.6-3.1-1.6-4.3-2.8c-1.2-1.2-2.1-2.7-2.4-4.4
				c0.4,1.4,1.5,2.5,2.8,3.5c1.2,0.9,2.7,1.8,4.4,2.4c1.6,0.6,3.3,1,4.8,1.2c1.6,0.1,3.2,0,4.4-0.7C75.8,59.8,74.1,60.3,72.4,60.4z
				 M72.8,58.4c-1.5,0.1-3.2-0.2-4.8-0.8c-1.6-0.6-3-1.5-4.1-2.6c-1.1-1.2-2-2.6-2.4-4.1c0.5,1.2,1.5,2.3,2.7,3.2
				c1.2,0.9,2.6,1.7,4.2,2.3c1.6,0.6,3.2,1,4.6,1.2c1.5,0.2,3,0.1,4.2-0.5C76,57.9,74.4,58.4,72.8,58.4z M73.9,42.6
				c-1.2-0.5-2.2-1.2-2.8-2c0.7,0.2,1.8,0.8,3.1,1.3c1.3,0.5,2.5,0.9,3.2,1.2C76.3,43.2,75.1,43.1,73.9,42.6z M45.8,66.7
				c-2.1,0.8-4.3,0.9-5.9,0.7c1.4-0.2,3.5-0.6,5.6-1.4c2.1-0.8,3.9-1.9,5.1-2.7C49.5,64.5,47.9,65.9,45.8,66.7z M45,65.1
				c-2.8,1.1-5.9,1.1-8.1,0.3c2,0.3,4.9,0,7.8-1.2c2.8-1.1,5.2-2.8,6.5-4.4C50.1,61.9,47.8,64,45,65.1z M50.5,58.3
				c-0.4,0.8-1,1.5-1.6,2.1c-1.2,1.2-2.8,2.3-4.5,3c-1.8,0.7-3.6,1-5.4,0.9c-0.9,0-1.8-0.2-2.6-0.5c-0.9-0.3-1.8-0.8-2.6-1.6
				c0.7,0.7,1.6,1,2.5,1.1c0.8,0.2,1.6,0.2,2.5,0.1c1.7-0.1,3.5-0.5,5.2-1.2c1.8-0.7,3.4-1.6,4.7-2.7c0.7-0.5,1.3-1.1,1.7-1.8
				c0.5-0.7,1-1.5,1-2.5C51.3,56.5,51,57.5,50.5,58.3z M50.5,53.9c-0.2,1.8-1.2,3.4-2.4,4.7c-1.2,1.2-2.7,2.2-4.4,2.9
				c-1.7,0.7-3.5,1-5.2,0.9c-1.8-0.1-3.6-0.6-5-1.8c1.3,0.9,3,1.1,4.7,1c1.6-0.1,3.3-0.5,5-1.2c1.7-0.7,3.3-1.5,4.5-2.5
				C49,56.7,50.2,55.4,50.5,53.9z M47,56.8c-1.1,1.1-2.6,2.1-4.2,2.8c-1.7,0.6-3.4,0.9-5,0.8c-1.7-0.1-3.4-0.6-4.7-1.6
				c1.2,0.7,2.8,0.9,4.4,0.7c1.5-0.1,3.2-0.5,4.8-1.2c1.6-0.6,3.1-1.5,4.4-2.4c1.3-1,2.4-2.2,2.8-3.5C49.2,54.1,48.2,55.6,47,56.8z
				 M46.3,55c-1.1,1.1-2.5,2-4.1,2.6c-1.6,0.6-3.3,0.9-4.8,0.8c-1.6-0.1-3.2-0.5-4.5-1.4c1.2,0.6,2.7,0.7,4.2,0.5
				c1.5-0.1,3.1-0.5,4.6-1.2c1.6-0.6,3-1.4,4.2-2.3c1.2-0.9,2.3-2,2.7-3.2C48.3,52.4,47.4,53.8,46.3,55z M47.4,49.8
				c-0.8,2.4-3.1,4.8-6.1,5.9c-2.9,1.1-6.2,1-8.5-0.2c2,0.6,5.1,0.2,8-0.9C43.8,53.4,46.3,51.6,47.4,49.8z M45.9,49.3
				c-0.9,1.7-2.8,3.5-5.2,4.4c-2.4,0.9-5,0.9-6.9,0.3c1.7,0.1,4.1-0.3,6.5-1.2C42.7,51.9,44.7,50.5,45.9,49.3z M39.9,52
				c-2.4,0.9-4.6,0.9-5.8,0.5c1.7,0,3.6-0.5,5.5-1.2c1.9-0.7,3.6-1.7,4.9-2.8C43.9,49.6,42.3,51.1,39.9,52z M42.7,48
				c-0.6,0.8-1.8,1.8-3.4,2.5c-1.6,0.6-3.2,0.7-4.2,0.5c1.1-0.3,2.5-0.7,3.9-1.3C40.4,49.1,41.7,48.5,42.7,48z M41.4,47
				c-0.5,0.7-1.5,1.4-2.7,1.9c-1.3,0.5-2.5,0.6-3.3,0.4c0.8-0.3,1.9-0.7,3-1.2C39.6,47.7,40.6,47.3,41.4,47z M40.5,45.6
				c-0.5,0.6-1.3,1.3-2.4,1.7c-1.1,0.4-2.1,0.5-2.9,0.4c0.7-0.3,1.6-0.7,2.6-1.1C38.8,46.2,39.8,45.8,40.5,45.6z M37.5,45.8
				c-1,0.4-2,0.5-2.8,0.3c0.6-0.3,1.5-0.7,2.5-1.1c1-0.4,1.9-0.7,2.6-0.9C39.3,44.7,38.5,45.4,37.5,45.8z M36.9,44.2
				c-1,0.4-2.1,0.5-3,0.4c0.6-0.3,1.6-0.7,2.7-1.1c1.1-0.4,2-0.8,2.7-1C38.8,43.1,37.9,43.8,36.9,44.2z M36,41.9
				c1.3-0.5,2.4-1,3.1-1.3c-0.7,0.8-1.6,1.6-2.8,2c-1.2,0.5-2.4,0.5-3.5,0.4C33.5,42.7,34.7,42.4,36,41.9z"/>
		</g>
	</g>
</g>
</svg>
